REM DIRINDEX 1\2\4,1\2\5,1\2\6,1\3\7,1\3\8,1\3\9,1\3\10
REM DIRNAME cjc058,folder01,folder02,folder03,folder04,folder05,folder06,folder07,folder08,folder09
TITLE ""
FILE "b_77.mp3" MP3
  TRACK 01 AUDIO
    TITLE "0:"
    INDEX 01 00:00:00
  TRACK 02 AUDIO
    TITLE "10:cjc058_5367"
    INDEX 01 00:00:13
  TRACK 03 AUDIO
    TITLE "0:"
    INDEX 01 00:02:36
  TRACK 04 AUDIO
    TITLE "7:cjc058_5368"
    INDEX 01 00:03:06
  TRACK 05 AUDIO
    TITLE "0:"
    INDEX 01 00:04:66
  TRACK 06 AUDIO
    TITLE "8:cjc058_5369"
    INDEX 01 00:05:20
  TRACK 07 AUDIO
    TITLE "0:"
    INDEX 01 00:08:36
  TRACK 08 AUDIO
    TITLE "9:cjc058_5370"
    INDEX 01 00:09:00
  TRACK 09 AUDIO
    TITLE "0:"
    INDEX 01 00:14:49
  TRACK 10 AUDIO
    TITLE "7:cjc058_5371"
    INDEX 01 00:15:50
  TRACK 11 AUDIO
    TITLE "0:"
    INDEX 01 00:17:31
  TRACK 12 AUDIO
    TITLE "8:cjc058_5372"
    INDEX 01 00:17:61
  TRACK 13 AUDIO
    TITLE "0:"
    INDEX 01 00:19:46
  TRACK 14 AUDIO
    TITLE "9:cjc058_5373"
    INDEX 01 00:20:12
  TRACK 15 AUDIO
    TITLE "0:"
    INDEX 01 00:24:55
  TRACK 16 AUDIO
    TITLE "7:cjc058_5374"
    INDEX 01 00:25:56
  TRACK 17 AUDIO
    TITLE "0:"
    INDEX 01 00:27:24
  TRACK 18 AUDIO
    TITLE "8:cjc058_5375"
    INDEX 01 00:27:53
  TRACK 19 AUDIO
    TITLE "0:"
    INDEX 01 00:29:05
  TRACK 20 AUDIO
    TITLE "9:cjc058_5376"
    INDEX 01 00:29:48
  TRACK 21 AUDIO
    TITLE "0:"
    INDEX 01 00:34:10
  TRACK 22 AUDIO
    TITLE "7:cjc058_5377"
    INDEX 01 00:35:14
  TRACK 23 AUDIO
    TITLE "0:"
    INDEX 01 00:36:66
  TRACK 24 AUDIO
    TITLE "8:cjc058_5378"
    INDEX 01 00:37:20
  TRACK 25 AUDIO
    TITLE "0:"
    INDEX 01 00:38:61
  TRACK 26 AUDIO
    TITLE "9:cjc058_5379"
    INDEX 01 00:39:27
  TRACK 27 AUDIO
    TITLE "0:"
    INDEX 01 00:43:11
  TRACK 28 AUDIO
    TITLE "7:cjc058_5380"
    INDEX 01 00:44:16
  TRACK 29 AUDIO
    TITLE "0:"
    INDEX 01 00:46:43
  TRACK 30 AUDIO
    TITLE "8:cjc058_5381"
    INDEX 01 00:46:72
  TRACK 31 AUDIO
    TITLE "0:"
    INDEX 01 00:48:59
  TRACK 32 AUDIO
    TITLE "9:cjc058_5382"
    INDEX 01 00:49:25
  TRACK 33 AUDIO
    TITLE "0:"
    INDEX 01 00:56:02
  TRACK 34 AUDIO
    TITLE "7:cjc058_5383"
    INDEX 01 00:57:03
  TRACK 35 AUDIO
    TITLE "0:"
    INDEX 01 00:58:67
  TRACK 36 AUDIO
    TITLE "8:cjc058_5384"
    INDEX 01 00:59:22
  TRACK 37 AUDIO
    TITLE "0:"
    INDEX 01 01:01:05
  TRACK 38 AUDIO
    TITLE "9:cjc058_5385"
    INDEX 01 01:01:44
  TRACK 39 AUDIO
    TITLE "0:"
    INDEX 01 01:04:50
  TRACK 40 AUDIO
    TITLE "7:cjc058_5386"
    INDEX 01 01:05:56
  TRACK 41 AUDIO
    TITLE "0:"
    INDEX 01 01:07:57
  TRACK 42 AUDIO
    TITLE "8:cjc058_5387"
    INDEX 01 01:08:13
  TRACK 43 AUDIO
    TITLE "0:"
    INDEX 01 01:09:71
  TRACK 44 AUDIO
    TITLE "9:cjc058_5388"
    INDEX 01 01:10:35
  TRACK 45 AUDIO
    TITLE "0:"
    INDEX 01 01:14:06
  TRACK 46 AUDIO
    TITLE "7:cjc058_5389"
    INDEX 01 01:15:07
  TRACK 47 AUDIO
    TITLE "0:"
    INDEX 01 01:17:16
  TRACK 48 AUDIO
    TITLE "8:cjc058_5390"
    INDEX 01 01:17:45
  TRACK 49 AUDIO
    TITLE "0:"
    INDEX 01 01:19:54
  TRACK 50 AUDIO
    TITLE "9:cjc058_5391"
    INDEX 01 01:20:18
  TRACK 51 AUDIO
    TITLE "0:"
    INDEX 01 01:25:37
  TRACK 52 AUDIO
    TITLE "7:cjc058_5392"
    INDEX 01 01:26:42
  TRACK 53 AUDIO
    TITLE "0:"
    INDEX 01 01:28:06
  TRACK 54 AUDIO
    TITLE "8:cjc058_5393"
    INDEX 01 01:28:37
  TRACK 55 AUDIO
    TITLE "0:"
    INDEX 01 01:30:54
  TRACK 56 AUDIO
    TITLE "9:cjc058_5394"
    INDEX 01 01:31:20
  TRACK 57 AUDIO
    TITLE "0:"
    INDEX 01 01:36:13
  TRACK 58 AUDIO
    TITLE "7:cjc058_5395"
    INDEX 01 01:37:17
  TRACK 59 AUDIO
    TITLE "0:"
    INDEX 01 01:39:04
  TRACK 60 AUDIO
    TITLE "8:cjc058_5396"
    INDEX 01 01:39:29
  TRACK 61 AUDIO
    TITLE "0:"
    INDEX 01 01:42:43
  TRACK 62 AUDIO
    TITLE "9:cjc058_5397"
    INDEX 01 01:43:07
  TRACK 63 AUDIO
    TITLE "0:"
    INDEX 01 01:49:12
  TRACK 64 AUDIO
    TITLE "7:cjc058_5398"
    INDEX 01 01:50:17
  TRACK 65 AUDIO
    TITLE "0:"
    INDEX 01 01:52:08
  TRACK 66 AUDIO
    TITLE "8:cjc058_5399"
    INDEX 01 01:52:38
  TRACK 67 AUDIO
    TITLE "0:"
    INDEX 01 01:55:60
  TRACK 68 AUDIO
    TITLE "9:cjc058_5400"
    INDEX 01 01:56:22
  TRACK 69 AUDIO
    TITLE "0:"
    INDEX 01 02:00:71
  TRACK 70 AUDIO
    TITLE "7:cjc058_5401"
    INDEX 01 02:02:01
  TRACK 71 AUDIO
    TITLE "0:"
    INDEX 01 02:04:04
  TRACK 72 AUDIO
    TITLE "8:cjc058_5402"
    INDEX 01 02:04:33
  TRACK 73 AUDIO
    TITLE "0:"
    INDEX 01 02:07:10
  TRACK 74 AUDIO
    TITLE "9:cjc058_5403"
    INDEX 01 02:07:51
  TRACK 75 AUDIO
    TITLE "0:"
    INDEX 01 02:12:40
  TRACK 76 AUDIO
    TITLE "7:cjc058_5404"
    INDEX 01 02:13:46
  TRACK 77 AUDIO
    TITLE "0:"
    INDEX 01 02:15:15
  TRACK 78 AUDIO
    TITLE "8:cjc058_5405"
    INDEX 01 02:15:41
  TRACK 79 AUDIO
    TITLE "0:"
    INDEX 01 02:16:46
  TRACK 80 AUDIO
    TITLE "9:cjc058_5406"
    INDEX 01 02:17:10
  TRACK 81 AUDIO
    TITLE "0:"
    INDEX 01 02:22:00
  TRACK 82 AUDIO
    TITLE "7:cjc058_5407"
    INDEX 01 02:23:07
  TRACK 83 AUDIO
    TITLE "0:"
    INDEX 01 02:24:40
  TRACK 84 AUDIO
    TITLE "8:cjc058_5408"
    INDEX 01 02:24:69
  TRACK 85 AUDIO
    TITLE "0:"
    INDEX 01 02:27:40
  TRACK 86 AUDIO
    TITLE "9:cjc058_5409"
    INDEX 01 02:28:06
  TRACK 87 AUDIO
    TITLE "0:"
    INDEX 01 02:31:67
  TRACK 88 AUDIO
    TITLE "7:cjc058_5410"
    INDEX 01 02:32:72
  TRACK 89 AUDIO
    TITLE "0:"
    INDEX 01 02:34:54
  TRACK 90 AUDIO
    TITLE "8:cjc058_5411"
    INDEX 01 02:35:10
  TRACK 91 AUDIO
    TITLE "0:"
    INDEX 01 02:36:66
  TRACK 92 AUDIO
    TITLE "9:cjc058_5412"
    INDEX 01 02:37:33
  TRACK 93 AUDIO
    TITLE "0:"
    INDEX 01 02:41:40
  TRACK 94 AUDIO
    TITLE "7:cjc058_5413"
    INDEX 01 02:42:43
  TRACK 95 AUDIO
    TITLE "0:"
    INDEX 01 02:43:68
  TRACK 96 AUDIO
    TITLE "8:cjc058_5414"
    INDEX 01 02:44:23
  TRACK 97 AUDIO
    TITLE "0:"
    INDEX 01 02:47:09
  TRACK 98 AUDIO
    TITLE "9:cjc058_5415"
    INDEX 01 02:47:49
  TRACK 99 AUDIO
    TITLE "0:"
    INDEX 01 02:51:37
  TRACK 100 AUDIO
    TITLE "7:cjc058_5416"
    INDEX 01 02:52:38
  TRACK 101 AUDIO
    TITLE "0:"
    INDEX 01 02:54:29
  TRACK 102 AUDIO
    TITLE "8:cjc058_5417"
    INDEX 01 02:54:58
  TRACK 103 AUDIO
    TITLE "0:"
    INDEX 01 02:57:35
  TRACK 104 AUDIO
    TITLE "9:cjc058_5418"
    INDEX 01 02:58:01
  TRACK 105 AUDIO
    TITLE "0:"
    INDEX 01 03:02:38
  TRACK 106 AUDIO
    TITLE "7:cjc058_5419"
    INDEX 01 03:03:44
  TRACK 107 AUDIO
    TITLE "0:"
    INDEX 01 03:05:21
  TRACK 108 AUDIO
    TITLE "8:cjc058_5420"
    INDEX 01 03:05:48
  TRACK 109 AUDIO
    TITLE "0:"
    INDEX 01 03:07:73
  TRACK 110 AUDIO
    TITLE "9:cjc058_5421"
    INDEX 01 03:08:39
  TRACK 111 AUDIO
    TITLE "0:"
    INDEX 01 03:13:60
  TRACK 112 AUDIO
    TITLE "7:cjc058_5422"
    INDEX 01 03:14:63
  TRACK 113 AUDIO
    TITLE "0:"
    INDEX 01 03:16:48
  TRACK 114 AUDIO
    TITLE "8:cjc058_5423"
    INDEX 01 03:17:01
  TRACK 115 AUDIO
    TITLE "0:"
    INDEX 01 03:19:56
  TRACK 116 AUDIO
    TITLE "9:cjc058_5424"
    INDEX 01 03:20:19
  TRACK 117 AUDIO
    TITLE "0:"
    INDEX 01 03:25:43
  TRACK 118 AUDIO
    TITLE "7:cjc058_5425"
    INDEX 01 03:26:47
  TRACK 119 AUDIO
    TITLE "0:"
    INDEX 01 03:28:20
  TRACK 120 AUDIO
    TITLE "8:cjc058_5426"
    INDEX 01 03:28:49
  TRACK 121 AUDIO
    TITLE "0:"
    INDEX 01 03:30:37
  TRACK 122 AUDIO
    TITLE "9:cjc058_5427"
    INDEX 01 03:31:01
  TRACK 123 AUDIO
    TITLE "0:"
    INDEX 01 03:35:36
  TRACK 124 AUDIO
    TITLE "7:cjc058_5428"
    INDEX 01 03:36:39
  TRACK 125 AUDIO
    TITLE "0:"
    INDEX 01 03:38:17
  TRACK 126 AUDIO
    TITLE "8:cjc058_5429"
    INDEX 01 03:38:46
  TRACK 127 AUDIO
    TITLE "0:"
    INDEX 01 03:40:23
  TRACK 128 AUDIO
    TITLE "9:cjc058_5430"
    INDEX 01 03:40:64
  TRACK 129 AUDIO
    TITLE "0:"
    INDEX 01 03:45:03
  TRACK 130 AUDIO
    TITLE "7:cjc058_5431"
    INDEX 01 03:46:08
  TRACK 131 AUDIO
    TITLE "0:"
    INDEX 01 03:48:19
  TRACK 132 AUDIO
    TITLE "8:cjc058_5432"
    INDEX 01 03:48:48
  TRACK 133 AUDIO
    TITLE "0:"
    INDEX 01 03:52:38
  TRACK 134 AUDIO
    TITLE "9:cjc058_5433"
    INDEX 01 03:53:02
  TRACK 135 AUDIO
    TITLE "0:"
    INDEX 01 03:56:65
  TRACK 136 AUDIO
    TITLE "7:cjc058_5434"
    INDEX 01 03:57:69
  TRACK 137 AUDIO
    TITLE "0:"
    INDEX 01 04:00:06
  TRACK 138 AUDIO
    TITLE "8:cjc058_5435"
    INDEX 01 04:00:36
  TRACK 139 AUDIO
    TITLE "0:"
    INDEX 01 04:02:33
  TRACK 140 AUDIO
    TITLE "9:cjc058_5436"
    INDEX 01 04:02:74
  TRACK 141 AUDIO
    TITLE "0:"
    INDEX 01 04:07:73
  TRACK 142 AUDIO
    TITLE "7:cjc058_5437"
    INDEX 01 04:09:03
  TRACK 143 AUDIO
    TITLE "0:"
    INDEX 01 04:10:40
  TRACK 144 AUDIO
    TITLE "8:cjc058_5438"
    INDEX 01 04:10:69
  TRACK 145 AUDIO
    TITLE "0:"
    INDEX 01 04:14:16
  TRACK 146 AUDIO
    TITLE "9:cjc058_5439"
    INDEX 01 04:14:57
  TRACK 147 AUDIO
    TITLE "0:"
    INDEX 01 04:18:59
  TRACK 148 AUDIO
    TITLE "7:cjc058_5440"
    INDEX 01 04:19:62
  TRACK 149 AUDIO
    TITLE "0:"
    INDEX 01 04:21:65
  TRACK 150 AUDIO
    TITLE "8:cjc058_5441"
    INDEX 01 04:22:20
  TRACK 151 AUDIO
    TITLE "0:"
    INDEX 01 04:23:58
  TRACK 152 AUDIO
    TITLE "9:cjc058_5442"
    INDEX 01 04:24:24
  TRACK 153 AUDIO
    TITLE "0:"
    INDEX 01 04:27:66
  TRACK 154 AUDIO
    TITLE "7:cjc058_5443"
    INDEX 01 04:28:71
  TRACK 155 AUDIO
    TITLE "0:"
    INDEX 01 04:31:25
  TRACK 156 AUDIO
    TITLE "8:cjc058_5444"
    INDEX 01 04:31:54
  TRACK 157 AUDIO
    TITLE "0:"
    INDEX 01 04:34:25
  TRACK 158 AUDIO
    TITLE "9:cjc058_5445"
    INDEX 01 04:34:68
  TRACK 159 AUDIO
    TITLE "0:"
    INDEX 01 04:39:08
  TRACK 160 AUDIO
    TITLE "7:cjc058_5446"
    INDEX 01 04:40:12
  TRACK 161 AUDIO
    TITLE "0:"
    INDEX 01 04:41:66
  TRACK 162 AUDIO
    TITLE "8:cjc058_5447"
    INDEX 01 04:42:20
  TRACK 163 AUDIO
    TITLE "0:"
    INDEX 01 04:45:03
  TRACK 164 AUDIO
    TITLE "9:cjc058_5448"
    INDEX 01 04:45:44
  TRACK 165 AUDIO
    TITLE "0:"
    INDEX 01 04:50:08
  TRACK 166 AUDIO
    TITLE "7:cjc058_5449"
    INDEX 01 04:51:14
  TRACK 167 AUDIO
    TITLE "0:"
    INDEX 01 04:53:36
  TRACK 168 AUDIO
    TITLE "8:cjc058_5450"
    INDEX 01 04:53:65
  TRACK 169 AUDIO
    TITLE "0:"
    INDEX 01 04:56:48
  TRACK 170 AUDIO
    TITLE "9:cjc058_5451"
    INDEX 01 04:57:14
  TRACK 171 AUDIO
    TITLE "0:"
    INDEX 01 05:01:12
  TRACK 172 AUDIO
    TITLE "7:cjc058_5452"
    INDEX 01 05:02:09
  TRACK 173 AUDIO
    TITLE "0:"
    INDEX 01 05:04:46
  TRACK 174 AUDIO
    TITLE "8:cjc058_5453"
    INDEX 01 05:04:73
  TRACK 175 AUDIO
    TITLE "0:"
    INDEX 01 05:06:70
  TRACK 176 AUDIO
    TITLE "9:cjc058_5454"
    INDEX 01 05:07:38
  TRACK 177 AUDIO
    TITLE "0:"
    INDEX 01 05:12:45
  TRACK 178 AUDIO
    TITLE "7:cjc058_5455"
    INDEX 01 05:13:50
  TRACK 179 AUDIO
    TITLE "0:"
    INDEX 01 05:14:69
  TRACK 180 AUDIO
    TITLE "8:cjc058_5456"
    INDEX 01 05:15:24
  TRACK 181 AUDIO
    TITLE "0:"
    INDEX 01 05:18:54
  TRACK 182 AUDIO
    TITLE "9:cjc058_5457"
    INDEX 01 05:19:20
  TRACK 183 AUDIO
    TITLE "0:"
    INDEX 01 05:22:36
  TRACK 184 AUDIO
    TITLE "7:cjc058_5458"
    INDEX 01 05:23:39
  TRACK 185 AUDIO
    TITLE "0:"
    INDEX 01 05:25:18
  TRACK 186 AUDIO
    TITLE "8:cjc058_5459"
    INDEX 01 05:25:46
  TRACK 187 AUDIO
    TITLE "0:"
    INDEX 01 05:27:56
  TRACK 188 AUDIO
    TITLE "9:cjc058_5460"
    INDEX 01 05:28:23
  TRACK 189 AUDIO
    TITLE "0:"
    INDEX 01 05:32:11
  TRACK 190 AUDIO
    TITLE "7:cjc058_5461"
    INDEX 01 05:33:14
  TRACK 191 AUDIO
    TITLE "0:"
    INDEX 01 05:35:64
  TRACK 192 AUDIO
    TITLE "8:cjc058_5462"
    INDEX 01 05:36:18
  TRACK 193 AUDIO
    TITLE "0:"
    INDEX 01 05:39:03
  TRACK 194 AUDIO
    TITLE "9:cjc058_5463"
    INDEX 01 05:39:44
  TRACK 195 AUDIO
    TITLE "0:"
    INDEX 01 05:42:52
  TRACK 196 AUDIO
    TITLE "7:cjc058_5464"
    INDEX 01 05:43:55
  TRACK 197 AUDIO
    TITLE "0:"
    INDEX 01 05:46:03
  TRACK 198 AUDIO
    TITLE "8:cjc058_5465"
    INDEX 01 05:46:34
  TRACK 199 AUDIO
    TITLE "0:"
    INDEX 01 05:48:39
  TRACK 200 AUDIO
    TITLE "9:cjc058_5466"
    INDEX 01 05:49:07
  TRACK 201 AUDIO
    TITLE "0:"
    INDEX 01 05:53:62
  TRACK 202 AUDIO
    TITLE "7:cjc058_5467"
    INDEX 01 05:54:63
  TRACK 203 AUDIO
    TITLE "0:"
    INDEX 01 05:56:44
  TRACK 204 AUDIO
    TITLE "8:cjc058_5468"
    INDEX 01 05:56:74
  TRACK 205 AUDIO
    TITLE "0:"
    INDEX 01 05:58:28
  TRACK 206 AUDIO
    TITLE "9:cjc058_5469"
    INDEX 01 05:58:69
  TRACK 207 AUDIO
    TITLE "0:"
    INDEX 01 06:02:51
  TRACK 208 AUDIO
    TITLE "7:cjc058_5470"
    INDEX 01 06:03:56
  TRACK 209 AUDIO
    TITLE "0:"
    INDEX 01 06:05:47
  TRACK 210 AUDIO
    TITLE "8:cjc058_5471"
    INDEX 01 06:06:02
  TRACK 211 AUDIO
    TITLE "0:"
    INDEX 01 06:07:64
  TRACK 212 AUDIO
    TITLE "9:cjc058_5472"
    INDEX 01 06:08:30
  TRACK 213 AUDIO
    TITLE "0:"
    INDEX 01 06:12:67
  TRACK 214 AUDIO
    TITLE "7:cjc058_5473"
    INDEX 01 06:13:72
  TRACK 215 AUDIO
    TITLE "0:"
    INDEX 01 06:15:50
  TRACK 216 AUDIO
    TITLE "8:cjc058_5474"
    INDEX 01 06:16:02
  TRACK 217 AUDIO
    TITLE "0:"
    INDEX 01 06:18:18
  TRACK 218 AUDIO
    TITLE "9:cjc058_5475"
    INDEX 01 06:18:58
  TRACK 219 AUDIO
    TITLE "0:"
    INDEX 01 06:23:41
  TRACK 220 AUDIO
    TITLE "7:cjc058_5476"
    INDEX 01 06:24:47
  TRACK 221 AUDIO
    TITLE "0:"
    INDEX 01 06:26:24
  TRACK 222 AUDIO
    TITLE "8:cjc058_5477"
    INDEX 01 06:26:53
  TRACK 223 AUDIO
    TITLE "0:"
    INDEX 01 06:29:67
  TRACK 224 AUDIO
    TITLE "9:cjc058_5478"
    INDEX 01 06:30:31
  TRACK 225 AUDIO
    TITLE "0:"
    INDEX 01 06:34:25
  TRACK 226 AUDIO
    TITLE "7:cjc058_5479"
    INDEX 01 06:35:29
  TRACK 227 AUDIO
    TITLE "0:"
    INDEX 01 06:36:69
  TRACK 228 AUDIO
    TITLE "8:cjc058_5480"
    INDEX 01 06:37:24
  TRACK 229 AUDIO
    TITLE "0:"
    INDEX 01 06:40:08
  TRACK 230 AUDIO
    TITLE "9:cjc058_5481"
    INDEX 01 06:40:51
  TRACK 231 AUDIO
    TITLE "0:"
    INDEX 01 06:45:39
  TRACK 232 AUDIO
    TITLE "7:cjc058_5482"
    INDEX 01 06:46:46
  TRACK 233 AUDIO
    TITLE "0:"
    INDEX 01 06:48:29
  TRACK 234 AUDIO
    TITLE "8:cjc058_5483"
    INDEX 01 06:48:59
  TRACK 235 AUDIO
    TITLE "0:"
    INDEX 01 06:52:15
  TRACK 236 AUDIO
    TITLE "9:cjc058_5484"
    INDEX 01 06:52:57
  TRACK 237 AUDIO
    TITLE "0:"
    INDEX 01 06:57:52
  TRACK 238 AUDIO
    TITLE "7:cjc058_5485"
    INDEX 01 06:58:55
  TRACK 239 AUDIO
    TITLE "0:"
    INDEX 01 07:00:36
  TRACK 240 AUDIO
    TITLE "8:cjc058_5486"
    INDEX 01 07:00:66
  TRACK 241 AUDIO
    TITLE "0:"
    INDEX 01 07:02:31
  TRACK 242 AUDIO
    TITLE "9:cjc058_5487"
    INDEX 01 07:02:71
  TRACK 243 AUDIO
    TITLE "0:"
    INDEX 01 07:07:09
  TRACK 244 AUDIO
    TITLE "7:cjc058_5488"
    INDEX 01 07:08:12
  TRACK 245 AUDIO
    TITLE "0:"
    INDEX 01 07:09:55
  TRACK 246 AUDIO
    TITLE "8:cjc058_5489"
    INDEX 01 07:10:09
  TRACK 247 AUDIO
    TITLE "0:"
    INDEX 01 07:11:34
  TRACK 248 AUDIO
    TITLE "9:cjc058_5490"
    INDEX 01 07:12:02
  TRACK 249 AUDIO
    TITLE "0:"
    INDEX 01 07:15:71
  TRACK 250 AUDIO
    TITLE "7:cjc058_5491"
    INDEX 01 07:17:00
  TRACK 251 AUDIO
    TITLE "0:"
    INDEX 01 07:19:03
  TRACK 252 AUDIO
    TITLE "8:cjc058_5492"
    INDEX 01 07:19:32
  TRACK 253 AUDIO
    TITLE "0:"
    INDEX 01 07:21:35
  TRACK 254 AUDIO
    TITLE "9:cjc058_5493"
    INDEX 01 07:22:01
  TRACK 255 AUDIO
    TITLE "0:"
    INDEX 01 07:25:27
  TRACK 256 AUDIO
    TITLE "7:cjc058_5494"
    INDEX 01 07:26:32
  TRACK 257 AUDIO
    TITLE "0:"
    INDEX 01 07:28:13
  TRACK 258 AUDIO
    TITLE "8:cjc058_5495"
    INDEX 01 07:28:43
  TRACK 259 AUDIO
    TITLE "0:"
    INDEX 01 07:31:04
  TRACK 260 AUDIO
    TITLE "9:cjc058_5496"
    INDEX 01 07:31:39
  TRACK 261 AUDIO
    TITLE "0:"
    INDEX 01 07:35:33
  TRACK 262 AUDIO
    TITLE "7:cjc058_5497"
    INDEX 01 07:36:36
  TRACK 263 AUDIO
    TITLE "0:"
    INDEX 01 07:38:18
  TRACK 264 AUDIO
    TITLE "8:cjc058_5498"
    INDEX 01 07:38:47
  TRACK 265 AUDIO
    TITLE "0:"
    INDEX 01 07:40:16
  TRACK 266 AUDIO
    TITLE "9:cjc058_5499"
    INDEX 01 07:40:60
  TRACK 267 AUDIO
    TITLE "0:"
    INDEX 01 07:44:73
  TRACK 268 AUDIO
    TITLE "7:cjc058_5500"
    INDEX 01 07:45:72
  TRACK 269 AUDIO
    TITLE "0:"
    INDEX 01 07:47:48
  TRACK 270 AUDIO
    TITLE "8:cjc058_5501"
    INDEX 01 07:48:02
  TRACK 271 AUDIO
    TITLE "0:"
    INDEX 01 07:49:62
  TRACK 272 AUDIO
    TITLE "9:cjc058_5502"
    INDEX 01 07:50:30
  TRACK 273 AUDIO
    TITLE "0:"
    INDEX 01 07:54:54
  TRACK 274 AUDIO
    TITLE "7:cjc058_5503"
    INDEX 01 07:55:55
  TRACK 275 AUDIO
    TITLE "0:"
    INDEX 01 07:57:40
  TRACK 276 AUDIO
    TITLE "8:cjc058_5504"
    INDEX 01 07:57:70
  TRACK 277 AUDIO
    TITLE "0:"
    INDEX 01 07:59:45
  TRACK 278 AUDIO
    TITLE "9:cjc058_5505"
    INDEX 01 08:00:15
  TRACK 279 AUDIO
    TITLE "0:"
    INDEX 01 08:03:59
  TRACK 280 AUDIO
    TITLE "7:cjc058_5506"
    INDEX 01 08:04:64
  TRACK 281 AUDIO
    TITLE "0:"
    INDEX 01 08:06:73
  TRACK 282 AUDIO
    TITLE "8:cjc058_5507"
    INDEX 01 08:07:25
  TRACK 283 AUDIO
    TITLE "0:"
    INDEX 01 08:09:14
  TRACK 284 AUDIO
    TITLE "9:cjc058_5508"
    INDEX 01 08:09:53
  TRACK 285 AUDIO
    TITLE "0:"
    INDEX 01 08:13:71
  TRACK 286 AUDIO
    TITLE "7:cjc058_5509"
    INDEX 01 08:14:74
  TRACK 287 AUDIO
    TITLE "0:"
    INDEX 01 08:17:23
  TRACK 288 AUDIO
    TITLE "8:cjc058_5510"
    INDEX 01 08:17:53
  TRACK 289 AUDIO
    TITLE "0:"
    INDEX 01 08:20:43
  TRACK 290 AUDIO
    TITLE "9:cjc058_5511"
    INDEX 01 08:21:09
  TRACK 291 AUDIO
    TITLE "0:"
    INDEX 01 08:26:01
  TRACK 292 AUDIO
    TITLE "7:cjc058_5512"
    INDEX 01 08:27:06
  TRACK 293 AUDIO
    TITLE "0:"
    INDEX 01 08:28:70
  TRACK 294 AUDIO
    TITLE "8:cjc058_5513"
    INDEX 01 08:29:23
  TRACK 295 AUDIO
    TITLE "0:"
    INDEX 01 08:32:01
  TRACK 296 AUDIO
    TITLE "9:cjc058_5514"
    INDEX 01 08:32:39
  TRACK 297 AUDIO
    TITLE "0:"
    INDEX 01 08:37:09
  TRACK 298 AUDIO
    TITLE "7:cjc058_5515"
    INDEX 01 08:38:14
  TRACK 299 AUDIO
    TITLE "0:"
    INDEX 01 08:39:41
  TRACK 300 AUDIO
    TITLE "8:cjc058_5516"
    INDEX 01 08:39:66
  TRACK 301 AUDIO
    TITLE "0:"
    INDEX 01 08:43:33
  TRACK 302 AUDIO
    TITLE "9:cjc058_5517"
    INDEX 01 08:43:74
  TRACK 303 AUDIO
    TITLE "0:"
    INDEX 01 08:48:36
  TRACK 304 AUDIO
    TITLE "7:cjc058_5518"
    INDEX 01 08:49:39
  TRACK 305 AUDIO
    TITLE "0:"
    INDEX 01 08:51:30
  TRACK 306 AUDIO
    TITLE "8:cjc058_5519"
    INDEX 01 08:51:62
  TRACK 307 AUDIO
    TITLE "0:"
    INDEX 01 08:53:21
  TRACK 308 AUDIO
    TITLE "9:cjc058_5520"
    INDEX 01 08:53:60
  TRACK 309 AUDIO
    TITLE "0:"
    INDEX 01 08:58:18
  TRACK 310 AUDIO
    TITLE "7:cjc058_5521"
    INDEX 01 08:59:22
  TRACK 311 AUDIO
    TITLE "0:"
    INDEX 01 09:00:57
  TRACK 312 AUDIO
    TITLE "8:cjc058_5522"
    INDEX 01 09:01:11
  TRACK 313 AUDIO
    TITLE "0:"
    INDEX 01 09:04:15
  TRACK 314 AUDIO
    TITLE "9:cjc058_5523"
    INDEX 01 09:04:56
  TRACK 315 AUDIO
    TITLE "0:"
    INDEX 01 09:08:52
  TRACK 316 AUDIO
    TITLE "7:cjc058_5524"
    INDEX 01 09:09:56
  TRACK 317 AUDIO
    TITLE "0:"
    INDEX 01 09:11:45
  TRACK 318 AUDIO
    TITLE "8:cjc058_5525"
    INDEX 01 09:11:74
  TRACK 319 AUDIO
    TITLE "0:"
    INDEX 01 09:13:49
  TRACK 320 AUDIO
    TITLE "9:cjc058_5526"
    INDEX 01 09:14:18
  TRACK 321 AUDIO
    TITLE "0:"
    INDEX 01 09:18:17
  TRACK 322 AUDIO
    TITLE "7:cjc058_5527"
    INDEX 01 09:19:23
  TRACK 323 AUDIO
    TITLE "0:"
    INDEX 01 09:21:29
  TRACK 324 AUDIO
    TITLE "8:cjc058_5528"
    INDEX 01 09:21:59
  TRACK 325 AUDIO
    TITLE "0:"
    INDEX 01 09:25:17
  TRACK 326 AUDIO
    TITLE "9:cjc058_5529"
    INDEX 01 09:25:58
  TRACK 327 AUDIO
    TITLE "0:"
    INDEX 01 09:30:28
  TRACK 328 AUDIO
    TITLE "7:cjc058_5530"
    INDEX 01 09:31:32
  TRACK 329 AUDIO
    TITLE "0:"
    INDEX 01 09:33:01
  TRACK 330 AUDIO
    TITLE "8:cjc058_5531"
    INDEX 01 09:33:31
  TRACK 331 AUDIO
    TITLE "0:"
    INDEX 01 09:35:29
  TRACK 332 AUDIO
    TITLE "9:cjc058_5532"
    INDEX 01 09:35:71
  TRACK 333 AUDIO
    TITLE "0:"
    INDEX 01 09:39:59
  TRACK 334 AUDIO
    TITLE "7:cjc058_5533"
    INDEX 01 09:40:64
  TRACK 335 AUDIO
    TITLE "0:"
    INDEX 01 09:42:24
  TRACK 336 AUDIO
    TITLE "8:cjc058_5534"
    INDEX 01 09:42:53
  TRACK 337 AUDIO
    TITLE "0:"
    INDEX 01 09:45:63
  TRACK 338 AUDIO
    TITLE "9:cjc058_5535"
    INDEX 01 09:46:31
  TRACK 339 AUDIO
    TITLE "0:"
    INDEX 01 09:52:18
  TRACK 340 AUDIO
    TITLE "7:cjc058_5536"
    INDEX 01 09:53:25
  TRACK 341 AUDIO
    TITLE "0:"
    INDEX 01 09:55:34
  TRACK 342 AUDIO
    TITLE "8:cjc058_5537"
    INDEX 01 09:55:63
  TRACK 343 AUDIO
    TITLE "0:"
    INDEX 01 09:58:60
  TRACK 344 AUDIO
    TITLE "9:cjc058_5538"
    INDEX 01 09:59:26
  TRACK 345 AUDIO
    TITLE "0:"
    INDEX 01 10:04:62
  TRACK 346 AUDIO
    TITLE "7:cjc058_5539"
    INDEX 01 10:05:66
  TRACK 347 AUDIO
    TITLE "0:"
    INDEX 01 10:07:45
  TRACK 348 AUDIO
    TITLE "8:cjc058_5540"
    INDEX 01 10:07:73
  TRACK 349 AUDIO
    TITLE "0:"
    INDEX 01 10:09:36
  TRACK 350 AUDIO
    TITLE "9:cjc058_5541"
    INDEX 01 10:10:02
  TRACK 351 AUDIO
    TITLE "0:"
    INDEX 01 10:14:63
  TRACK 352 AUDIO
    TITLE "7:cjc058_5542"
    INDEX 01 10:15:66
  TRACK 353 AUDIO
    TITLE "0:"
    INDEX 01 10:17:45
  TRACK 354 AUDIO
    TITLE "8:cjc058_5543"
    INDEX 01 10:18:00
  TRACK 355 AUDIO
    TITLE "0:"
    INDEX 01 10:20:48
  TRACK 356 AUDIO
    TITLE "9:cjc058_5544"
    INDEX 01 10:21:12
  TRACK 357 AUDIO
    TITLE "0:"
    INDEX 01 10:25:00
  TRACK 358 AUDIO
    TITLE "7:cjc058_5545"
    INDEX 01 10:26:03
  TRACK 359 AUDIO
    TITLE "0:"
    INDEX 01 10:27:22
  TRACK 360 AUDIO
    TITLE "8:cjc058_5546"
    INDEX 01 10:27:52
  TRACK 361 AUDIO
    TITLE "0:"
    INDEX 01 10:29:41
  TRACK 362 AUDIO
    TITLE "9:cjc058_5547"
    INDEX 01 10:30:07
  TRACK 363 AUDIO
    TITLE "0:"
    INDEX 01 10:33:60
  TRACK 364 AUDIO
    TITLE "7:cjc058_5548"
    INDEX 01 10:34:66
  TRACK 365 AUDIO
    TITLE "0:"
    INDEX 01 10:36:53
  TRACK 366 AUDIO
    TITLE "8:cjc058_5549"
    INDEX 01 10:37:07
  TRACK 367 AUDIO
    TITLE "0:"
    INDEX 01 10:38:69
  TRACK 368 AUDIO
    TITLE "9:cjc058_5550"
    INDEX 01 10:39:37
  TRACK 369 AUDIO
    TITLE "0:"
    INDEX 01 10:43:72
  TRACK 370 AUDIO
    TITLE "7:cjc058_5551"
    INDEX 01 10:45:03
  TRACK 371 AUDIO
    TITLE "0:"
    INDEX 01 10:47:03
  TRACK 372 AUDIO
    TITLE "8:cjc058_5552"
    INDEX 01 10:47:33
  TRACK 373 AUDIO
    TITLE "0:"
    INDEX 01 10:49:06
  TRACK 374 AUDIO
    TITLE "9:cjc058_5553"
    INDEX 01 10:49:45
  TRACK 375 AUDIO
    TITLE "0:"
    INDEX 01 10:54:33
  TRACK 376 AUDIO
    TITLE "7:cjc058_5554"
    INDEX 01 10:55:38
  TRACK 377 AUDIO
    TITLE "0:"
    INDEX 01 10:57:57
  TRACK 378 AUDIO
    TITLE "8:cjc058_5555"
    INDEX 01 10:58:09
  TRACK 379 AUDIO
    TITLE "0:"
    INDEX 01 11:01:17
  TRACK 380 AUDIO
    TITLE "9:cjc058_5556"
    INDEX 01 11:01:58
  TRACK 381 AUDIO
    TITLE "0:"
    INDEX 01 11:07:39
  TRACK 382 AUDIO
    TITLE "7:cjc058_5557"
    INDEX 01 11:08:45
  TRACK 383 AUDIO
    TITLE "0:"
    INDEX 01 11:10:61
  TRACK 384 AUDIO
    TITLE "8:cjc058_5558"
    INDEX 01 11:11:16
  TRACK 385 AUDIO
    TITLE "0:"
    INDEX 01 11:13:30
  TRACK 386 AUDIO
    TITLE "9:cjc058_5559"
    INDEX 01 11:13:71
  TRACK 387 AUDIO
    TITLE "0:"
    INDEX 01 11:19:09
  TRACK 388 AUDIO
    TITLE "7:cjc058_5560"
    INDEX 01 11:20:15
  TRACK 389 AUDIO
    TITLE "0:"
    INDEX 01 11:21:49
  TRACK 390 AUDIO
    TITLE "8:cjc058_5561"
    INDEX 01 11:22:04
  TRACK 391 AUDIO
    TITLE "0:"
    INDEX 01 11:24:09
  TRACK 392 AUDIO
    TITLE "9:cjc058_5562"
    INDEX 01 11:24:50
  TRACK 393 AUDIO
    TITLE "0:"
    INDEX 01 11:29:39
  TRACK 394 AUDIO
    TITLE "7:cjc058_5563"
    INDEX 01 11:30:44
  TRACK 395 AUDIO
    TITLE "0:"
    INDEX 01 11:32:28
  TRACK 396 AUDIO
    TITLE "8:cjc058_5564"
    INDEX 01 11:32:53
  TRACK 397 AUDIO
    TITLE "0:"
    INDEX 01 11:34:17
  TRACK 398 AUDIO
    TITLE "9:cjc058_5565"
    INDEX 01 11:34:60
  TRACK 399 AUDIO
    TITLE "0:"
    INDEX 01 11:39:71
  TRACK 400 AUDIO
    TITLE "7:cjc058_5566"
    INDEX 01 11:40:70
  TRACK 401 AUDIO
    TITLE "0:"
    INDEX 01 11:42:28
  TRACK 402 AUDIO
    TITLE "8:cjc058_5567"
    INDEX 01 11:42:55
  TRACK 403 AUDIO
    TITLE "0:"
    INDEX 01 11:44:37
  TRACK 404 AUDIO
    TITLE "9:cjc058_5568"
    INDEX 01 11:45:01
  TRACK 405 AUDIO
    TITLE "0:"
    INDEX 01 11:49:61
  TRACK 406 AUDIO
    TITLE "7:cjc058_5569"
    INDEX 01 11:50:65
  TRACK 407 AUDIO
    TITLE "0:"
    INDEX 01 11:52:48
  TRACK 408 AUDIO
    TITLE "8:cjc058_5570"
    INDEX 01 11:53:00
  TRACK 409 AUDIO
    TITLE "0:"
    INDEX 01 11:55:74
  TRACK 410 AUDIO
    TITLE "9:cjc058_5571"
    INDEX 01 11:56:40
  TRACK 411 AUDIO
    TITLE "0:"
    INDEX 01 12:01:00
  TRACK 412 AUDIO
    TITLE "7:cjc058_5572"
    INDEX 01 12:02:05
  TRACK 413 AUDIO
    TITLE "0:"
    INDEX 01 12:03:63
  TRACK 414 AUDIO
    TITLE "8:cjc058_5573"
    INDEX 01 12:04:16
  TRACK 415 AUDIO
    TITLE "0:"
    INDEX 01 12:05:66
  TRACK 416 AUDIO
    TITLE "9:cjc058_5574"
    INDEX 01 12:06:32
  TRACK 417 AUDIO
    TITLE "0:"
    INDEX 01 12:11:55
  TRACK 418 AUDIO
    TITLE "7:cjc058_5575"
    INDEX 01 12:12:59
  TRACK 419 AUDIO
    TITLE "0:"
    INDEX 01 12:14:67
  TRACK 420 AUDIO
    TITLE "8:cjc058_5576"
    INDEX 01 12:15:22
  TRACK 421 AUDIO
    TITLE "0:"
    INDEX 01 12:17:58
  TRACK 422 AUDIO
    TITLE "9:cjc058_5577"
    INDEX 01 12:18:24
  TRACK 423 AUDIO
    TITLE "0:"
    INDEX 01 12:21:59
  TRACK 424 AUDIO
    TITLE "7:cjc058_5578"
    INDEX 01 12:22:63
  TRACK 425 AUDIO
    TITLE "0:"
    INDEX 01 12:24:32
  TRACK 426 AUDIO
    TITLE "8:cjc058_5579"
    INDEX 01 12:24:62
  TRACK 427 AUDIO
    TITLE "0:"
    INDEX 01 12:26:27
  TRACK 428 AUDIO
    TITLE "9:cjc058_5580"
    INDEX 01 12:26:70
  TRACK 429 AUDIO
    TITLE "0:"
    INDEX 01 12:32:28
  TRACK 430 AUDIO
    TITLE "7:cjc058_5581"
    INDEX 01 12:33:33
  TRACK 431 AUDIO
    TITLE "0:"
    INDEX 01 12:35:18
  TRACK 432 AUDIO
    TITLE "8:cjc058_5582"
    INDEX 01 12:35:48
  TRACK 433 AUDIO
    TITLE "0:"
    INDEX 01 12:37:27
  TRACK 434 AUDIO
    TITLE "9:cjc058_5583"
    INDEX 01 12:37:68
  TRACK 435 AUDIO
    TITLE "0:"
    INDEX 01 12:41:43
  TRACK 436 AUDIO
    TITLE "7:cjc058_5584"
    INDEX 01 12:42:48
  TRACK 437 AUDIO
    TITLE "0:"
    INDEX 01 12:44:27
  TRACK 438 AUDIO
    TITLE "8:cjc058_5585"
    INDEX 01 12:44:55
  TRACK 439 AUDIO
    TITLE "0:"
    INDEX 01 12:46:61
  TRACK 440 AUDIO
    TITLE "9:cjc058_5586"
    INDEX 01 12:47:29
  TRACK 441 AUDIO
    TITLE "0:"
    INDEX 01 12:51:25
  TRACK 442 AUDIO
    TITLE "7:cjc058_5587"
    INDEX 01 12:52:31
  TRACK 443 AUDIO
    TITLE "0:"
    INDEX 01 12:53:67
  TRACK 444 AUDIO
    TITLE "8:cjc058_5588"
    INDEX 01 12:54:22
  TRACK 445 AUDIO
    TITLE "0:"
    INDEX 01 12:55:58
  TRACK 446 AUDIO
    TITLE "9:cjc058_5589"
    INDEX 01 12:56:19
  TRACK 447 AUDIO
    TITLE "0:"
    INDEX 01 12:59:60
  TRACK 448 AUDIO
    TITLE "7:cjc058_5590"
    INDEX 01 13:00:65
  TRACK 449 AUDIO
    TITLE "0:"
    INDEX 01 13:02:35
  TRACK 450 AUDIO
    TITLE "8:cjc058_5591"
    INDEX 01 13:02:64
  TRACK 451 AUDIO
    TITLE "0:"
    INDEX 01 13:04:18
  TRACK 452 AUDIO
    TITLE "9:cjc058_5592"
    INDEX 01 13:04:59
  TRACK 453 AUDIO
    TITLE "0:"
    INDEX 01 13:09:41
  TRACK 454 AUDIO
    TITLE "7:cjc058_5593"
    INDEX 01 13:10:44
  TRACK 455 AUDIO
    TITLE "0:"
    INDEX 01 13:12:24
  TRACK 456 AUDIO
    TITLE "8:cjc058_5594"
    INDEX 01 13:12:53
  TRACK 457 AUDIO
    TITLE "0:"
    INDEX 01 13:14:26
  TRACK 458 AUDIO
    TITLE "9:cjc058_5595"
    INDEX 01 13:14:67
  TRACK 459 AUDIO
    TITLE "0:"
    INDEX 01 13:21:19
  TRACK 460 AUDIO
    TITLE "7:cjc058_5596"
    INDEX 01 13:22:24
  TRACK 461 AUDIO
    TITLE "0:"
    INDEX 01 13:24:09
  TRACK 462 AUDIO
    TITLE "8:cjc058_5597"
    INDEX 01 13:24:38
  TRACK 463 AUDIO
    TITLE "0:"
    INDEX 01 13:26:37
  TRACK 464 AUDIO
    TITLE "9:cjc058_5598"
    INDEX 01 13:27:00
  TRACK 465 AUDIO
    TITLE "0:"
    INDEX 01 13:29:22
  TRACK 466 AUDIO
    TITLE "7:cjc058_5599"
    INDEX 01 13:30:25
  TRACK 467 AUDIO
    TITLE "0:"
    INDEX 01 13:32:01
  TRACK 468 AUDIO
    TITLE "8:cjc058_5600"
    INDEX 01 13:32:30
  TRACK 469 AUDIO
    TITLE "0:"
    INDEX 01 13:33:63
  TRACK 470 AUDIO
    TITLE "9:cjc058_5601"
    INDEX 01 13:34:25
  TRACK 471 AUDIO
    TITLE "0:"
    INDEX 01 13:37:27
  TRACK 472 AUDIO
    TITLE "7:cjc058_5602"
    INDEX 01 13:38:31
  TRACK 473 AUDIO
    TITLE "0:"
    INDEX 01 13:39:73
  TRACK 474 AUDIO
    TITLE "8:cjc058_5603"
    INDEX 01 13:40:26
  TRACK 475 AUDIO
    TITLE "0:"
    INDEX 01 13:43:12
  TRACK 476 AUDIO
    TITLE "9:cjc058_5604"
    INDEX 01 13:43:53
  TRACK 477 AUDIO
    TITLE "0:"
    INDEX 01 13:48:25
  TRACK 478 AUDIO
    TITLE "7:cjc058_5605"
    INDEX 01 13:49:27
  TRACK 479 AUDIO
    TITLE "0:"
    INDEX 01 13:51:39
  TRACK 480 AUDIO
    TITLE "8:cjc058_5606"
    INDEX 01 13:51:69
  TRACK 481 AUDIO
    TITLE "0:"
    INDEX 01 13:53:34
  TRACK 482 AUDIO
    TITLE "9:cjc058_5607"
    INDEX 01 13:54:00
  TRACK 483 AUDIO
    TITLE "0:"
    INDEX 01 13:57:46
  TRACK 484 AUDIO
    TITLE "7:cjc058_5608"
    INDEX 01 13:58:49
  TRACK 485 AUDIO
    TITLE "0:"
    INDEX 01 14:00:30
  TRACK 486 AUDIO
    TITLE "8:cjc058_5609"
    INDEX 01 14:00:60
  TRACK 487 AUDIO
    TITLE "0:"
    INDEX 01 14:02:19
  TRACK 488 AUDIO
    TITLE "9:cjc058_5610"
    INDEX 01 14:02:59
  TRACK 489 AUDIO
    TITLE "0:"
    INDEX 01 14:05:71
  TRACK 490 AUDIO
    TITLE "7:cjc058_5611"
    INDEX 01 14:06:74
  TRACK 491 AUDIO
    TITLE "0:"
    INDEX 01 14:08:53
  TRACK 492 AUDIO
    TITLE "8:cjc058_5612"
    INDEX 01 14:09:08
  TRACK 493 AUDIO
    TITLE "0:"
    INDEX 01 14:10:21
  TRACK 494 AUDIO
    TITLE "9:cjc058_5613"
    INDEX 01 14:10:62
  TRACK 495 AUDIO
    TITLE "0:"
    INDEX 01 14:16:14
  TRACK 496 AUDIO
    TITLE "7:cjc058_5614"
    INDEX 01 14:17:17
  TRACK 497 AUDIO
    TITLE "0:"
    INDEX 01 14:19:10
  TRACK 498 AUDIO
    TITLE "8:cjc058_5615"
    INDEX 01 14:19:39
  TRACK 499 AUDIO
    TITLE "0:"
    INDEX 01 14:22:40
  TRACK 500 AUDIO
    TITLE "9:cjc058_5616"
    INDEX 01 14:23:06
  TRACK 501 AUDIO
    TITLE "0:"
    INDEX 01 14:27:00
  TRACK 502 AUDIO
    TITLE "7:cjc058_5617"
    INDEX 01 14:27:74
  TRACK 503 AUDIO
    TITLE "0:"
    INDEX 01 14:29:48
  TRACK 504 AUDIO
    TITLE "8:cjc058_5618"
    INDEX 01 14:30:02
  TRACK 505 AUDIO
    TITLE "0:"
    INDEX 01 14:31:47
  TRACK 506 AUDIO
    TITLE "9:cjc058_5619"
    INDEX 01 14:32:13
  TRACK 507 AUDIO
    TITLE "0:"
    INDEX 01 14:38:06
  TRACK 508 AUDIO
    TITLE "7:cjc058_5620"
    INDEX 01 14:39:09
  TRACK 509 AUDIO
    TITLE "0:"
    INDEX 01 14:41:20
  TRACK 510 AUDIO
    TITLE "8:cjc058_5621"
    INDEX 01 14:41:49
  TRACK 511 AUDIO
    TITLE "0:"
    INDEX 01 14:43:38
  TRACK 512 AUDIO
    TITLE "9:cjc058_5622"
    INDEX 01 14:44:04
  TRACK 513 AUDIO
    TITLE "0:"
    INDEX 01 14:46:72
  TRACK 514 AUDIO
    TITLE "7:cjc058_5623"
    INDEX 01 14:48:00
  TRACK 515 AUDIO
    TITLE "0:"
    INDEX 01 14:50:38
  TRACK 516 AUDIO
    TITLE "8:cjc058_5624"
    INDEX 01 14:50:69
  TRACK 517 AUDIO
    TITLE "0:"
    INDEX 01 14:52:72
  TRACK 518 AUDIO
    TITLE "9:cjc058_5625"
    INDEX 01 14:53:38
  TRACK 519 AUDIO
    TITLE "0:"
    INDEX 01 14:57:56
  TRACK 520 AUDIO
    TITLE "7:cjc058_5626"
    INDEX 01 14:58:61
  TRACK 521 AUDIO
    TITLE "0:"
    INDEX 01 15:00:40
  TRACK 522 AUDIO
    TITLE "8:cjc058_5627"
    INDEX 01 15:00:70
  TRACK 523 AUDIO
    TITLE "0:"
    INDEX 01 15:04:30
  TRACK 524 AUDIO
    TITLE "9:cjc058_5628"
    INDEX 01 15:04:73
  TRACK 525 AUDIO
    TITLE "0:"
    INDEX 01 15:07:15
  TRACK 526 AUDIO
    TITLE "7:cjc058_5629"
    INDEX 01 15:08:18
  TRACK 527 AUDIO
    TITLE "0:"
    INDEX 01 15:09:63
  TRACK 528 AUDIO
    TITLE "8:cjc058_5630"
    INDEX 01 15:10:17
  TRACK 529 AUDIO
    TITLE "0:"
    INDEX 01 15:11:58
  TRACK 530 AUDIO
    TITLE "9:cjc058_5631"
    INDEX 01 15:12:20
  TRACK 531 AUDIO
    TITLE "0:"
    INDEX 01 15:16:06
  TRACK 532 AUDIO
    TITLE "7:cjc058_5632"
    INDEX 01 15:17:08
  TRACK 533 AUDIO
    TITLE "0:"
    INDEX 01 15:18:74
  TRACK 534 AUDIO
    TITLE "8:cjc058_5633"
    INDEX 01 15:19:28
  TRACK 535 AUDIO
    TITLE "0:"
    INDEX 01 15:21:03
  TRACK 536 AUDIO
    TITLE "9:cjc058_5634"
    INDEX 01 15:21:48
  TRACK 537 AUDIO
    TITLE "0:"
    INDEX 01 15:26:46
  TRACK 538 AUDIO
    TITLE "7:cjc058_5635"
    INDEX 01 15:27:51
  TRACK 539 AUDIO
    TITLE "0:"
    INDEX 01 15:29:54
  TRACK 540 AUDIO
    TITLE "8:cjc058_5636"
    INDEX 01 15:30:04
  TRACK 541 AUDIO
    TITLE "0:"
    INDEX 01 15:33:07
  TRACK 542 AUDIO
    TITLE "9:cjc058_5637"
    INDEX 01 15:33:50
  TRACK 543 AUDIO
    TITLE "0:"
    INDEX 01 15:37:24
  TRACK 544 AUDIO
    TITLE "7:cjc058_5638"
    INDEX 01 15:38:27
  TRACK 545 AUDIO
    TITLE "0:"
    INDEX 01 15:40:03
  TRACK 546 AUDIO
    TITLE "8:cjc058_5639"
    INDEX 01 15:40:32
  TRACK 547 AUDIO
    TITLE "0:"
    INDEX 01 15:42:66
  TRACK 548 AUDIO
    TITLE "9:cjc058_5640"
    INDEX 01 15:43:34
  TRACK 549 AUDIO
    TITLE "0:"
    INDEX 01 15:47:11
  TRACK 550 AUDIO
    TITLE "7:cjc058_5641"
    INDEX 01 15:48:16
  TRACK 551 AUDIO
    TITLE "0:"
    INDEX 01 15:49:66
  TRACK 552 AUDIO
    TITLE "8:cjc058_5642"
    INDEX 01 15:50:23
  TRACK 553 AUDIO
    TITLE "0:"
    INDEX 01 15:51:63
  TRACK 554 AUDIO
    TITLE "9:cjc058_5643"
    INDEX 01 15:52:27
  TRACK 555 AUDIO
    TITLE "0:"
    INDEX 01 15:55:49
  TRACK 556 AUDIO
    TITLE "7:cjc058_5644"
    INDEX 01 15:56:53
  TRACK 557 AUDIO
    TITLE "0:"
    INDEX 01 15:58:18
  TRACK 558 AUDIO
    TITLE "8:cjc058_5645"
    INDEX 01 15:58:50
  TRACK 559 AUDIO
    TITLE "0:"
    INDEX 01 16:01:24
  TRACK 560 AUDIO
    TITLE "9:cjc058_5646"
    INDEX 01 16:01:66
  TRACK 561 AUDIO
    TITLE "0:"
    INDEX 01 16:05:56
  TRACK 562 AUDIO
    TITLE "7:cjc058_5647"
    INDEX 01 16:06:55
  TRACK 563 AUDIO
    TITLE "0:"
    INDEX 01 16:08:17
  TRACK 564 AUDIO
    TITLE "8:cjc058_5648"
    INDEX 01 16:08:44
  TRACK 565 AUDIO
    TITLE "0:"
    INDEX 01 16:10:72
  TRACK 566 AUDIO
    TITLE "9:cjc058_5649"
    INDEX 01 16:11:39
  TRACK 567 AUDIO
    TITLE "0:"
    INDEX 01 16:14:35
  TRACK 568 AUDIO
    TITLE "7:cjc058_5650"
    INDEX 01 16:15:36
  TRACK 569 AUDIO
    TITLE "0:"
    INDEX 01 16:17:47
  TRACK 570 AUDIO
    TITLE "8:cjc058_5651"
    INDEX 01 16:18:01
  TRACK 571 AUDIO
    TITLE "0:"
    INDEX 01 16:20:51
  TRACK 572 AUDIO
    TITLE "9:cjc058_5652"
    INDEX 01 16:21:19
  TRACK 573 AUDIO
    TITLE "0:"
    INDEX 01 16:26:34
  TRACK 574 AUDIO
    TITLE "7:cjc058_5653"
    INDEX 01 16:27:36
  TRACK 575 AUDIO
    TITLE "0:"
    INDEX 01 16:29:15
  TRACK 576 AUDIO
    TITLE "8:cjc058_5654"
    INDEX 01 16:29:44
  TRACK 577 AUDIO
    TITLE "0:"
    INDEX 01 16:32:01
  TRACK 578 AUDIO
    TITLE "9:cjc058_5655"
    INDEX 01 16:32:43
  TRACK 579 AUDIO
    TITLE "0:"
    INDEX 01 16:35:66
  TRACK 580 AUDIO
    TITLE "7:cjc058_5656"
    INDEX 01 16:36:70
  TRACK 581 AUDIO
    TITLE "0:"
    INDEX 01 16:38:20
  TRACK 582 AUDIO
    TITLE "8:cjc058_5657"
    INDEX 01 16:38:47
  TRACK 583 AUDIO
    TITLE "0:"
    INDEX 01 16:40:40
  TRACK 584 AUDIO
    TITLE "9:cjc058_5658"
    INDEX 01 16:41:06
  TRACK 585 AUDIO
    TITLE "0:"
    INDEX 01 16:44:40
  TRACK 586 AUDIO
    TITLE "7:cjc058_5659"
    INDEX 01 16:45:45
  TRACK 587 AUDIO
    TITLE "0:"
    INDEX 01 16:47:03
  TRACK 588 AUDIO
    TITLE "8:cjc058_5660"
    INDEX 01 16:47:30
  TRACK 589 AUDIO
    TITLE "0:"
    INDEX 01 16:50:46
  TRACK 590 AUDIO
    TITLE "9:cjc058_5661"
    INDEX 01 16:51:13
  TRACK 591 AUDIO
    TITLE "0:"
    INDEX 01 16:56:25
  TRACK 592 AUDIO
    TITLE "7:cjc058_5662"
    INDEX 01 16:57:31
  TRACK 593 AUDIO
    TITLE "0:"
    INDEX 01 16:59:28
  TRACK 594 AUDIO
    TITLE "8:cjc058_5663"
    INDEX 01 16:59:55
  TRACK 595 AUDIO
    TITLE "0:"
    INDEX 01 17:01:34
  TRACK 596 AUDIO
    TITLE "9:cjc058_5664"
    INDEX 01 17:01:74
  TRACK 597 AUDIO
    TITLE "0:"
    INDEX 01 17:06:12
